<svg xmlns="http://www.w3.org/2000/svg" width="600" height="400" viewBox="0 0 600 400" role="img" aria-label="Project placeholder">
  <rect width="600" height="400" fill="#1a202c"/>
  <rect x="1" y="1" width="598" height="398" fill="none" stroke="#2d3748" stroke-width="2"/>
  <g fill="#4a5568">
    <path d="M250 170h100a8 8 0 0 1 8 8v44a8 8 0 0 1-8 8H250a8 8 0 0 1-8-8v-44a8 8 0 0 1 8-8zm6 14v32h88v-32h-88z"/>
    <circle cx="272" cy="196" r="7"/>
    <path d="M256 214l18-18 12 12 16-16 22 22z"/>
  </g>
  <text x="300" y="260" text-anchor="middle" font-family="Poppins, sans-serif" font-size="18" fill="#718096">Project image</text>
</svg>
